PathFileType	4	(X/Y/Z)	markers.trc
DataRate	CameraRate	NumFrames	NumMarkers	Units	OrigDataRate	OrigDataStartFrame	OrigNumFrames
200	200	6	29	mm	200	139	185
Frame#	Time	RxCheec			LxCheec			C7			maxkif			RxShould			LxShould			RxElbow			LxElbow			RxWrist			LxWrist			Psis			RxAsis			LxAsis			RxThigh			LxThigh			RxLatCon			LxLatCon			RxFH			LxFH			RxShank			LxShank			RxLatMal			LxLatMal			RxHeel			LxHeel			RxToe1			LxToe1			RxMeta5			LxMeta5			
		X1	Y1	Z1	X2	Y2	Z2	X3	Y3	Z3	X4	Y4	Z4	X5	Y5	Z5	X6	Y6	Z6	X7	Y7	Z7	X8	Y8	Z8	X9	Y9	Z9	X10	Y10	Z10	X11	Y11	Z11	X12	Y12	Z12	X13	Y13	Z13	X14	Y14	Z14	X15	Y15	Z15	X16	Y16	Z16	X17	Y17	Z17	X18	Y18	Z18	X19	Y19	Z19	X20	Y20	Z20	X21	Y21	Z21	X22	Y22	Z22	X23	Y23	Z23	X24	Y24	Z24	X25	Y25	Z25	X26	Y26	Z26	X27	Y27	Z27	X28	Y28	Z28	X29	Y29	Z29

139	2.305	1148.828148841858	1664.6002531051636	231.71724379062653	1173.977017402649	1655.1077365875244	68.93349438905716	1034.2988967895508	1568.7566995620728	144.83775198459625	960.9112739562988	1348.743200302124	141.72135293483734	1053.8228750228882	1560.1634979248047	300.0491261482239	1091.0124778747559	1545.2015399932861	-5.625220946967602	996.717095375061	1212.056040763855	403.73876690864563	1027.8111696243286	1204.8839330673218	-96.26465290784836	1133.6044073104858	992.7867650985718	438.9280080795288	1042.8005456924438	940.8441781997681	-112.00017482042313	992.2234416007996	1041.2542819976807	156.83358907699585	1160.3302955627441	1025.2281427383423	294.1896319389343	1184.3878030776978	1029.2423963546753	44.51867565512657	1266.4382457733154	699.9595165252686	284.3203544616699	1201.895833015442	680.0512671470642	84.68436449766159	1214.7431373596191	512.6410722732544	313.57842683792114	1137.7285718917847	492.7816390991211	40.28657823801041	1167.6335334777832	477.98770666122437	313.9892816543579	1105.2124500274658	444.4482624530792	20.949527621269226	1149.5057344436646	345.6827700138092	254.36100363731384	1138.2300853729248	302.9273748397827	88.19243311882019	925.8453249931335	198.28101992607117	253.01921367645264	1052.9606342315674	69.32909786701202	67.3312172293663	893.1363224983215	202.67647504806519	184.74411964416504	1008.7603330612183	49.56718534231186	123.64132702350616	1064.016580581665	54.6594113111496	294.1854000091553	1269.1521644592285	26.616372168064117	71.34173810482025	974.9386310577393	95.60386091470718	315.8947825431824	1163.4140014648438	18.71815323829651	21.819930523633957
140	2.31	1156.2678813934326	1664.689302444458	232.00127482414246	1181.5098524093628	1655.5215120315552	69.4897323846817	1041.967749595642	1569.0385103225708	144.66384053230286	968.5816764831543	1349.0104675292969	140.98432660102844	1061.110496520996	1560.2788925170898	299.96228218078613	1099.1522073745728	1545.8449125289917	-5.578594747930765	1002.3736953735352	1212.2130393981934	402.78783440589905	1039.1137599945068	1205.2525281906128	-97.55357354879379	1137.5292539596558	992.1318888664246	438.73491883277893	1057.245135307312	941.406786441803	-112.95709758996964	999.6498227119446	1041.5130853652954	156.59858286380768	1169.050931930542	1025.9289741516113	293.82631182670593	1191.98477268219	1029.3269157409668	44.17465254664421	1277.1081924438477	702.5755047798157	285.14230251312256	1205.8093547821045	679.3447136878967	84.41298454999924	1227.364182472229	514.6840214729309	313.4109079837799	1139.3078565597534	492.62991547584534	39.58630934357643	1181.3290119171143	478.7910282611847	313.84947896003723	1106.3718795776367	444.55552101135254	20.34343034029007	1166.5070056915283	345.870703458786	254.42847609519958	1139.2574310302734	302.8734028339386	87.4156728386879	946.686327457428	192.56485998630524	253.26362252235413	1053.1245470046997	69.58762556314468	67.4438551068306	913.6160612106323	195.84186375141144	185.17234921455383	1008.9048147201538	49.83638599514961	123.70605021715164	1089.9882316589355	53.804174065589905	293.76816749572754	1269.242286682129	26.565779000520706	71.24362885951996	999.5773434638977	91.50915592908859	316.00409746170044	1163.427472114563	18.646543845534325	21.867353469133377
141	2.315	1163.7009382247925	1664.6653413772583	232.34078288078308	1189.3006563186646	1655.815839767456	69.98749077320099	1049.6463775634766	1569.2157745361328	144.51326429843903	976.2552380561829	1349.1705656051636	140.28681814670563	1068.4221982955933	1560.2574348449707	299.9013066291809	1107.2804927825928	1546.3627576828003	-5.526556167751551	1008.0256462097168	1212.2472524642944	401.8501341342926	1050.4189729690552	1205.5376768112183	-98.84428232908249	1141.36803150177	991.3342595100403	438.5523200035095	1071.7533826828003	941.9540166854858	-113.90359699726105	1007.056713104248	1041.6581630706787	156.4050316810608	1177.6810884475708	1026.4674425125122	293.46567392349243	1199.5161771774292	1029.3192863464355	43.84912550449371	1287.6458168029785	705.0777077674866	285.88390350341797	1209.7538709640503	678.6213517189026	84.14353430271149	1239.770531654358	516.6876316070557	313.1525218486786	1140.9121751785278	492.480605840683	38.855068385601044	1195.0184106826782	479.33685779571533	313.6509656906128	1107.5921058654785	444.6655213832855	19.727859646081924	1183.4654808044434	346.0169732570648	254.33480739593506	1140.332818031311	302.8240501880646	86.64451539516449	967.829704284668	186.61928176879883	253.49268317222595	1053.2382726669312	69.87206637859344	67.5344169139862	934.3962669372559	188.82720172405243	185.63492596149445	1009.0345144271851	50.138846039772034	123.74068796634674	1116.047978401184	52.99609526991844	293.4119999408722	1269.3397998809814	26.510905474424362	71.14937156438828	1024.4779586791992	87.43840456008911	316.1787986755371	1163.3973121643066	18.555661663413048	21.91189117729664
142	2.32	1171.1227893829346	1664.5312309265137	232.72037506103516	1197.3397731781006	1655.9942960739136	70.42568922042847	1057.3365688323975	1569.2893266677856	144.38478648662567	983.9338660240173	1349.228024482727	139.62973654270172	1075.7408142089844	1560.093879699707	299.84813928604126	1115.398645401001	1546.7584133148193	-5.472004413604736	1013.6814117431641	1212.1593952178955	400.9239077568054	1061.7172718048096	1205.7398557662964	-100.13080388307571	1145.1120376586914	990.388810634613	438.38322162628174	1086.5139961242676	942.4804449081421	-114.89901691675186	1014.4426822662354	1041.689395904541	156.24968707561493	1185.8896017074585	1026.8141031265259	293.13743114471436	1206.9820165634155	1029.2164087295532	43.540094047784805	1298.0506420135498	707.4594497680664	286.5598499774933	1213.7304544448853	677.8799295425415	83.86565744876862	1252.0074844360352	518.6161994934082	312.81042098999023	1142.5721645355225	492.3311173915863	38.1041020154953	1208.6842060089111	479.6474575996399	313.4078085422516	1108.9354753494263	444.7749853134155	19.109686836600304	1200.3812789916992	346.1269736289978	254.08661365509033	1141.4449214935303	302.7837574481964	85.9212800860405	989.2794489860535	180.48717081546783	253.73345613479614	1053.3027648925781	70.15371322631836	67.59697198867798	955.5063843727112	181.6474050283432	186.10715866088867	1009.1570615768433	50.47307163476944	123.74776601791382	1142.1749591827393	52.245642989873886	293.14637184143066	1269.444227218628	26.451652869582176	71.05592638254166	1049.6073961257935	83.41829478740692	316.4173662662506	1163.3151769638062	18.4488445520401	21.932076662778854
143	2.325	1178.5286664962769	1664.291501045227	233.12091827392578	1205.533742904663	1656.0670137405396	70.82517445087433	1065.0397539138794	1569.2607164382935	144.27734911441803	991.6185736656189	1349.1884469985962	139.01150226593018	1083.0515623092651	1559.7882270812988	299.78951811790466	1123.5058307647705	1547.0365285873413	-5.415139254182577	1019.3493366241455	1211.951732635498	400.0094532966614	1073.0010271072388	1205.8607339859009	-101.41174495220184	1148.762583732605	989.2933368682861	438.2234811782837	1101.63414478302	942.982017993927	-115.97910523414612	1021.8104124069214	1041.609764099121	156.1272144317627	1193.3457851409912	1026.9393920898438	292.8713262081146	1214.3917083740234	1029.0182828903198	43.23779419064522	1308.3242177963257	709.7115516662598	287.17994689941406	1217.7305221557617	677.1224737167358	83.57073366641998	1264.1258239746094	520.4254984855652	312.39616870880127	1144.3175077438354	492.18085408210754	37.34800964593887	1222.3032712936401	479.75674271583557	313.13711404800415	1110.4470491409302	444.8837339878082	18.49506050348282	1217.2515392303467	346.2059199810028	253.69426608085632	1142.5881385803223	302.7564287185669	85.27006953954697	1011.0296010971069	174.2294579744339	254.0179193019867	1053.323745727539	70.41483372449875	67.62714684009552	976.9583344459534	174.3251234292984	186.58703565597534	1009.2669725418091	50.841107964515686	123.73057752847672	1168.3605909347534	51.57604068517685	292.9864227771759	1269.554615020752	26.388369500637054	70.95975428819656	1074.9354362487793	79.47634905576706	316.71586632728577	1163.1850004196167	18.333381041884422	21.91239222884178
144	2.33	1185.9155893325806	1663.9515161514282	233.5267812013626	1213.7643098831177	1656.0473442077637	71.21683657169342	1072.7565288543701	1569.1311359405518	144.19032633304596	999.3086457252502	1349.0582704544067	138.42986524105072	1090.3465747833252	1559.3461990356445	299.7208833694458	1131.6003799438477	1547.202229499817	-5.352816544473171	1025.0369310379028	1211.6280794143677	399.10903573036194	1084.265112876892	1205.9032917022705	-102.68842428922653	1152.332067489624	988.0481958389282	438.0621910095215	1117.111086845398	943.4580206871033	-117.14788526296616	1029.1658639907837	1041.425347328186	156.0320109128952	1200.0194787979126	1026.8654823303223	292.66834259033203	1221.7589616775513	1028.72633934021	42.92917996644974	1318.4688091278076	711.8232250213623	287.74723410606384	1221.738576889038	676.3535141944885	83.25295895338058	1276.164174079895	522.0742225646973	311.9238018989563	1146.173119544983	492.0310378074646	36.602649837732315	1235.8522415161133	479.7018766403198	312.8531277179718	1112.1490001678467	444.9934661388397	17.889589071273804	1234.0683937072754	346.25744819641113	253.1721293926239	1143.7618732452393	302.743524312973	84.69923585653305	1033.069372177124	167.9113656282425	254.37027215957642	1053.3177852630615	70.65197080373764	67.62205064296722	998.7480044364929	166.88725352287292	187.089741230011	1009.3510150909424	51.2460358440876	123.69108945131302	1194.603681564331	51.020532846450806	292.9336130619049	1269.670009613037	26.3220127671957	70.85840404033661	1100.4364490509033	75.64115524291992	317.06929206848145	1163.0215644836426	18.217651173472404	21.847596392035484
